<svg width="20" height="22" viewBox="0 0 20 22" fill="none" xmlns="http://www.w3.org/2000/svg">
<path d="M4 13.3333H5.33333C6.07 13.3333 6.66667 12.736 6.66667 12V10.6667C6.66667 9.93 6.07 9.33333 5.33333 9.33333H4C3.26333 9.33333 2.66667 9.93 2.66667 10.6667V12C2.66667 12.736 3.26333 13.3333 4 13.3333ZM4 10.6667H5.33333V12H4V10.6667ZM14.6667 18.6666H16C16.7367 18.6666 17.3334 18.07 17.3334 17.3333V16C17.3334 15.2634 16.7367 14.6667 16 14.6667H14.6667C13.9307 14.6667 13.3333 15.2634 13.3333 16V17.3333C13.3333 18.07 13.93 18.6666 14.6667 18.6666ZM14.6667 16H16V17.3333H14.6667V16ZM14.6667 13.3333H16C16.7367 13.3333 17.3334 12.736 17.3334 12V10.6667C17.3334 9.93 16.7367 9.33333 16 9.33333H14.6667C13.9307 9.33333 13.3333 9.93 13.3333 10.6667V12C13.3333 12.736 13.93 13.3333 14.6667 13.3333ZM14.6667 10.6667H16V12H14.6667V10.6667ZM17.3334 1.33333H14.6667V0.666667C14.6667 0.29866 14.368 0 14 0C13.6321 0 13.3334 0.29866 13.3334 0.666667V1.33333H6.6667V0.666667C6.66667 0.29866 6.36801 0 6 0C5.63199 0 5.33333 0.29866 5.33333 0.666667V1.33333H2.66667C1.19402 1.33333 0 2.52735 0 4V18.6666C0 20.1393 1.19402 21.3334 2.66667 21.3334H17.3333C18.806 21.3334 20 20.1393 20 18.6666V4C20 2.52732 18.806 1.33333 17.3334 1.33333ZM18.6667 18.6666C18.6667 19.4033 18.07 20 17.3334 20H2.66667C1.93 20 1.33333 19.4026 1.33333 18.6666V6.66667H18.6667V18.6666H18.6667ZM18.6667 5.33333H1.33333V4C1.33333 3.26333 1.93 2.66667 2.66667 2.66667H5.33333V3.33333C5.33333 3.70134 5.63199 4 6 4C6.36801 4 6.66667 3.70134 6.66667 3.33333V2.66667H13.3333V3.33333C13.3333 3.70134 13.632 4 14 4C14.368 4 14.6667 3.70134 14.6667 3.33333V2.66667H17.3334C18.07 2.66667 18.6667 3.26333 18.6667 4V5.33333ZM9.33333 18.6666H10.6667C11.4033 18.6666 12 18.07 12 17.3333V16C12 15.2634 11.4033 14.6667 10.6667 14.6667H9.33333C8.59735 14.6667 8 15.2634 8 16V17.3333C8 18.07 8.59667 18.6666 9.33333 18.6666ZM9.33333 16H10.6667V17.3333H9.33333V16ZM9.33333 13.3333H10.6667C11.4033 13.3333 12 12.736 12 12V10.6667C12 9.93 11.4033 9.33333 10.6667 9.33333H9.33333C8.59735 9.33333 8 9.93 8 10.6667V12C8 12.736 8.59667 13.3333 9.33333 13.3333ZM9.33333 10.6667H10.6667V12H9.33333V10.6667ZM4 18.6666H5.33333C6.07 18.6666 6.66667 18.07 6.66667 17.3333V16C6.66667 15.2634 6.07 14.6667 5.33333 14.6667H4C3.26333 14.6667 2.66667 15.2634 2.66667 16V17.3333C2.66667 18.07 3.26333 18.6666 4 18.6666ZM4 16H5.33333V17.3333H4V16Z" fill="#1AAD25"/>
</svg>
