<svg width="27" height="18" viewBox="0 0 27 18" fill="none" xmlns="http://www.w3.org/2000/svg">
<path d="M26.8369 8.31562C24.2949 3.35578 19.2624 0 13.5 0C7.73765 0 2.70373 3.35813 0.1631 8.31609C0.0558691 8.52821 0 8.76256 0 9.00023C0 9.23791 0.0558691 9.47226 0.1631 9.68438C2.70514 14.6442 7.73765 18 13.5 18C19.2624 18 24.2963 14.6419 26.8369 9.68391C26.9441 9.47179 27 9.23744 27 8.99977C27 8.76209 26.9441 8.52774 26.8369 8.31562ZM13.5 15.75C12.165 15.75 10.8599 15.3541 9.74989 14.6124C8.63986 13.8707 7.77469 12.8165 7.2638 11.5831C6.75291 10.3497 6.61924 8.99251 6.87969 7.68314C7.14014 6.37377 7.78301 5.17103 8.72702 4.22703C9.67103 3.28302 10.8738 2.64015 12.1831 2.3797C13.4925 2.11925 14.8497 2.25292 16.0831 2.76381C17.3165 3.2747 18.3707 4.13987 19.1124 5.2499C19.8541 6.35993 20.25 7.66498 20.25 9C20.2504 9.88654 20.0761 10.7645 19.7371 11.5836C19.398 12.4028 18.9008 13.1471 18.2739 13.7739C17.6471 14.4008 16.9028 14.898 16.0836 15.2371C15.2645 15.5761 14.3865 15.7504 13.5 15.75ZM13.5 4.5C13.0983 4.50561 12.6993 4.56537 12.3136 4.67766C12.6315 5.10969 12.7841 5.64135 12.7436 6.17622C12.7031 6.71109 12.4723 7.21376 12.093 7.59305C11.7138 7.97234 11.2111 8.20314 10.6762 8.24361C10.1413 8.28407 9.60968 8.13151 9.17765 7.81359C8.93163 8.71996 8.97604 9.68066 9.30462 10.5605C9.63321 11.4403 10.2294 12.1949 11.0093 12.7181C11.7893 13.2413 12.7136 13.5068 13.6523 13.4771C14.591 13.4475 15.4968 13.1242 16.2421 12.5528C16.9875 11.9814 17.5349 11.1907 17.8073 10.2919C18.0797 9.39308 18.0634 8.43149 17.7606 7.54246C17.4579 6.65342 16.884 5.8817 16.1197 5.33593C15.3554 4.79015 14.4392 4.49779 13.5 4.5Z" fill="#1AAD25"/>
</svg>
