<svg width="27" height="26" viewBox="0 0 27 26" fill="none" xmlns="http://www.w3.org/2000/svg">
<path d="M26.9084 13.0778C26.9079 10.5782 26.1912 8.13105 24.8432 6.0261C23.4952 3.92115 21.5722 2.24653 19.302 1.20048C17.0318 0.154429 14.5094 -0.219242 12.0335 0.123703C9.55749 0.466647 7.23163 1.51185 5.33122 3.13556C3.43081 4.75928 2.03543 6.89352 1.31028 9.28563C0.585121 11.6777 0.560555 14.2275 1.23949 16.6332C1.91842 19.0388 3.27242 21.1995 5.14119 22.8596C7.00996 24.5196 9.31525 25.6094 11.7842 26V16.8587H8.46143V13.0793H11.7842V10.1962C11.7842 6.91824 13.7355 5.10571 16.7243 5.10571C17.7062 5.11921 18.6857 5.20454 19.6552 5.36101V8.58038H18.0031C17.7221 8.54317 17.4364 8.56962 17.167 8.65777C16.8976 8.74592 16.6515 8.89351 16.4469 9.08961C16.2423 9.28572 16.0844 9.52533 15.9848 9.79071C15.8853 10.0561 15.8468 10.3405 15.872 10.6228V13.0778H19.4971L18.9171 16.8571H15.872V26C18.9486 25.5123 21.7504 23.943 23.7734 21.5743C25.7965 19.2056 26.9081 16.1928 26.9084 13.0778Z" fill="white"/>
</svg>
