<svg width="29" height="22" viewBox="0 0 29 22" fill="none" xmlns="http://www.w3.org/2000/svg">
<g clip-path="url(#clip0_17_1348)">
<path d="M29 21.1585C28.4864 21.7215 27.8359 21.8921 27.0826 21.8921C18.7285 21.875 10.3743 21.8921 2.02007 21.875C0.393743 21.875 0 21.4826 0 19.8621C0 13.9256 0 7.98912 0 2.05265C0 0.568529 0.427981 0.142059 1.93447 0.142059C10.3229 0.142059 18.6942 0.142059 27.0826 0.125C27.8359 0.125 28.4864 0.278529 29 0.858529C29 7.61382 29 14.3862 29 21.1585ZM2.82468 4.64559C2.61924 4.91853 2.68772 5.15735 2.68772 5.36206C2.68772 9.59265 2.70484 13.8403 2.6706 18.0709C2.6706 18.9238 2.97875 19.1285 3.76623 19.1115C10.9563 19.0944 18.1464 19.0944 25.3365 19.1115C26.1582 19.1115 26.415 18.8556 26.3979 18.0368C26.3636 13.8232 26.3808 9.62677 26.3808 5.41324C26.3808 5.15735 26.5519 4.78206 26.2267 4.66265C25.987 4.57735 25.7987 4.90147 25.6104 5.055C22.1865 7.93794 18.7798 10.8209 15.356 13.7038C14.4315 14.4715 13.8837 14.4544 12.9593 13.6356C10.7338 11.6397 8.49115 9.66088 6.26564 7.665C5.11865 6.67559 3.97166 5.66912 2.82468 4.64559ZM5.11865 2.95676C5.37544 3.24676 5.49528 3.40029 5.63223 3.51971C8.35419 5.94206 11.0762 8.36441 13.7639 10.8038C14.1576 11.1621 14.363 11.0256 14.6883 10.7526C17.222 8.60324 19.7727 6.47088 22.3064 4.30441C22.7686 3.91206 23.3164 3.58794 23.7273 2.95676C17.513 2.95676 11.4014 2.95676 5.11865 2.95676Z" fill="#1AAD25"/>
</g>
<defs>
<clipPath id="clip0_17_1348">
<rect width="29" height="21.75" fill="white" transform="translate(0 0.125)"/>
</clipPath>
</defs>
</svg>
