<svg width="25" height="29" viewBox="0 0 25 29" fill="none" xmlns="http://www.w3.org/2000/svg">
<path fill-rule="evenodd" clip-rule="evenodd" d="M18.8142 24.0853H16.3446V20.6874H12.8368V24.0853H10.2872L14.5495 28.0961L18.8142 24.0853ZM23.4149 7.76319H19.1183C18.6655 7.76319 18.0367 7.52081 17.7394 7.22354C17.4422 6.92628 17.2615 6.38891 17.2615 5.94073V1.58923H5.90599C5.86941 1.58923 5.83968 1.60752 5.82139 1.62581C5.78937 1.64639 5.78023 1.67383 5.78023 1.7127V21.7735C5.78023 21.801 5.80081 21.8398 5.81681 21.8581C5.83739 21.8879 5.87627 21.8947 5.90371 21.8947H8.86721C8.63168 22.3886 8.4579 22.9214 8.35729 23.4748H5.41893C5.08508 23.4748 4.78782 23.3422 4.56601 23.1204C4.34649 22.9009 4.21387 22.6036 4.21387 22.2674V1.2165C4.21387 0.882649 4.34878 0.585384 4.56601 0.363578C4.78782 0.141773 5.09423 0.00914662 5.41893 0.00914662H18.0664C18.0939 0 18.1213 0 18.151 0C18.2837 0 18.4209 0.0571664 18.5146 0.141773H18.5329C18.5535 0.153206 18.5626 0.162353 18.5809 0.178359L24.8166 6.48953C24.9218 6.59471 24.9996 6.73877 24.9996 6.90112C24.9996 6.94914 24.9904 6.98573 24.9813 7.03832C24.9813 12.8053 24.9813 16.5028 24.9813 22.2697C24.9813 22.6036 24.8464 22.9031 24.6268 23.1227C24.405 23.3422 24.1078 23.4771 23.7739 23.4771H20.5795C20.4788 22.9214 20.3073 22.3909 20.0695 21.897H23.2869C23.3234 21.897 23.3234 21.8764 23.344 21.8604C23.3737 21.8398 23.4126 21.801 23.4126 21.7758C23.4126 16.4136 23.4149 13.1231 23.4149 7.76319ZM18.6861 5.81496V1.85676L23.1428 6.37062H19.2418C19.0886 6.37062 18.9536 6.30431 18.8485 6.20827C18.7524 6.11223 18.6861 5.96817 18.6861 5.81496Z" fill="white"/>
<path fill-rule="evenodd" clip-rule="evenodd" d="M0 8.80615H20.3284V18.5725H0V8.80615Z" fill="#FF0000"/>
<path d="M2.7601 11.1182H5.45149C6.03688 11.1182 6.47591 11.2576 6.76632 11.5343C7.05672 11.8133 7.20307 12.2066 7.20307 12.7188C7.20307 13.2448 7.04529 13.6564 6.72516 13.9536C6.40731 14.2509 5.92254 14.3972 5.26856 14.3972H4.38362V16.3317H2.75781V11.1182H2.7601ZM4.38591 13.3408H4.7815C5.09477 13.3408 5.31429 13.2882 5.43777 13.1784C5.56354 13.071 5.62756 12.9338 5.62756 12.7646C5.62756 12.5999 5.57268 12.4604 5.46293 12.3484C5.35545 12.2341 5.14737 12.1769 4.84553 12.1769H4.38362V13.3408H4.38591ZM8.00111 11.1182H10.4044C10.8777 11.1182 11.2619 11.1822 11.5523 11.3102C11.8427 11.4383 12.0828 11.6212 12.2749 11.8613C12.4647 12.1014 12.6019 12.3804 12.6888 12.6982C12.7734 13.0161 12.8168 13.3522 12.8168 13.7089C12.8168 14.2669 12.7528 14.6991 12.6247 15.0055C12.499 15.3119 12.3206 15.5703 12.0942 15.7784C11.8678 15.9865 11.6255 16.1237 11.3671 16.1923C11.0126 16.286 10.6902 16.334 10.4021 16.334H8.00111V11.1182ZM9.61778 12.3004V15.1473H10.0134C10.3518 15.1473 10.5919 15.1107 10.736 15.0352C10.8777 14.962 10.9898 14.8294 11.0721 14.6442C11.1521 14.459 11.1933 14.1571 11.1933 13.7387C11.1933 13.1853 11.1041 12.808 10.9235 12.6045C10.7428 12.401 10.441 12.2981 10.0225 12.2981H9.61778V12.3004ZM13.6034 11.1182H17.6051V12.2386H15.2292V13.1487H17.2575V14.2006H15.2292V16.3317H13.6034V11.1182Z" fill="white"/>
</svg>
