<svg width="26" height="26" viewBox="0 0 26 26" fill="none" xmlns="http://www.w3.org/2000/svg">
<g clip-path="url(#clip0_17_1345)">
<path d="M7.16444 0C8.15822 0.300444 8.93244 0.878222 9.55644 1.71022C10.2844 2.68089 11.0702 3.60533 11.8213 4.56444C12.7573 5.76622 12.8267 7.14133 12.0524 8.44711C11.7058 9.02489 11.3476 9.59111 11.0009 10.1689C10.6311 10.7929 10.6658 11.2204 11.1627 11.7289C12.1911 12.7689 13.2196 13.8089 14.2711 14.8258C14.7796 15.3227 15.2187 15.3573 15.8427 14.9876C16.4204 14.6409 16.9867 14.2827 17.5644 13.936C18.8124 13.1849 20.1991 13.2311 21.3431 14.1093C22.4871 14.9876 23.608 15.9004 24.7289 16.8133C25.3876 17.3449 25.7342 18.0613 26 18.8356C26 19.3787 26 19.9102 26 20.4533C24.6942 22.9493 23.0996 25.1449 20.2222 26C19.5289 26 18.8356 26 18.1422 26C9.01333 23.0302 2.95822 16.9867 0 7.85778C0 7.16444 0 6.47111 0 5.77778C0.843556 2.88889 3.03911 1.29422 5.54667 0C6.08978 0 6.62133 0 7.16444 0ZM19.1244 23.7698C20.072 23.7582 20.904 23.4462 21.5511 22.7413C22.1751 22.0596 22.776 21.3547 23.3653 20.6498C23.9893 19.8871 23.92 19.1129 23.1573 18.4773C22.152 17.6453 21.112 16.8364 20.0951 16.016C19.656 15.6578 19.1822 15.6347 18.7084 15.9236C18.1076 16.2818 17.5298 16.6516 16.9404 17.0098C15.5307 17.8533 13.9822 17.7031 12.8036 16.5707C11.6711 15.4729 10.5502 14.352 9.45245 13.2196C8.32 12.0524 8.15822 10.4693 9.00178 9.08267C9.36 8.49333 9.72978 7.904 10.088 7.31467C10.3653 6.84089 10.3653 6.36711 9.99556 5.91644C9.17511 4.89956 8.36622 3.87111 7.53422 2.85422C6.88711 2.06844 6.10133 2.01067 5.31556 2.66933C4.68 3.20089 4.04444 3.73244 3.432 4.28711C2.27644 5.32711 1.92978 6.59822 2.44978 8.05422C5.17689 15.6462 10.3538 20.8 17.9342 23.5502C18.3156 23.6889 18.7084 23.7813 19.1244 23.7698Z" fill="#1AAD25"/>
</g>
<defs>
<clipPath id="clip0_17_1345">
<rect width="26" height="26" fill="white"/>
</clipPath>
</defs>
</svg>
